<svg width="119" height="112" viewBox="0 0 119 112" fill="none" xmlns="http://www.w3.org/2000/svg">
<path d="M90.9818 55.1609C84.2763 55.1512 77.7892 57.5109 72.6964 61.8124L5.10977 112L94.309 110.496C101.411 109.626 107.911 106.122 112.488 100.696C117.065 95.2705 119.375 88.3301 118.95 81.2851C118.525 74.24 115.396 67.6188 110.199 62.7665C105.002 57.9142 98.1272 55.1949 90.9705 55.1609H90.9818ZM90.9818 105.231C86.5088 105.231 82.1363 103.923 78.4171 101.473C74.698 99.0221 71.7993 95.539 70.0875 91.4639C68.3758 87.3887 67.9279 82.9046 68.8006 78.5784C69.6732 74.2523 71.8271 70.2785 74.99 67.1595C78.1529 64.0405 82.1826 61.9165 86.5697 61.0559C90.9567 60.1954 95.504 60.6371 99.6365 62.325C103.769 64.013 107.301 66.8715 109.786 70.539C112.271 74.2066 113.598 78.5184 113.598 82.9293C113.598 85.858 113.013 88.7581 111.876 91.4639C110.74 94.1696 109.074 96.6282 106.974 98.6991C104.874 100.77 102.38 102.413 99.6365 103.534C96.8926 104.654 93.9518 105.231 90.9818 105.231Z" fill="black"/>
<path d="M90.9874 101.866C101.593 101.866 110.191 93.3879 110.191 82.9293C110.191 72.4706 101.593 63.9922 90.9874 63.9922C80.3816 63.9922 71.7839 72.4706 71.7839 82.9293C71.7839 93.3879 80.3816 101.866 90.9874 101.866Z" fill="black"/>
<path d="M47.1899 20.1822C42.8273 23.2327 39.7182 27.7245 38.427 32.8423L18.0217 96.2489L71.6082 57.2849L75.2754 54.6243C79.506 50.8272 82.1076 45.581 82.5493 39.9567C82.9909 34.3324 81.2393 28.7538 77.6519 24.3597C74.0646 19.9656 68.9119 17.0871 63.2456 16.3118C57.5793 15.5365 51.8266 16.9228 47.1616 20.1878L47.1899 20.1822ZM70.6843 52.7127C67.7785 54.7512 64.325 55.8943 60.7605 55.9973C57.196 56.1003 53.6805 55.1587 50.6587 53.2915C47.6368 51.4243 45.2444 48.7154 43.7838 45.5073C42.3232 42.2993 41.86 38.7362 42.453 35.2686C43.0459 31.801 44.6683 28.5846 47.1149 26.0263C49.5615 23.4679 52.7225 21.6824 56.1982 20.8956C59.6738 20.1088 63.308 20.356 66.6412 21.606C69.9743 22.856 72.8568 25.0526 74.924 27.918C76.2966 29.8205 77.2757 31.9711 77.8055 34.2468C78.3353 36.5225 78.4053 38.8788 78.0116 41.1812C77.6179 43.4837 76.7682 45.687 75.5109 47.6656C74.2537 49.6442 72.6136 51.3592 70.6843 52.7127Z" fill="black"/>
<path d="M60.2096 53.322C68.6648 53.322 75.5191 46.5628 75.5191 38.2249C75.5191 29.887 68.6648 23.1278 60.2096 23.1278C51.7543 23.1278 44.9 29.887 44.9 38.2249C44.9 46.5628 51.7543 53.322 60.2096 53.322Z" fill="black"/>
<path d="M1.00577 12.3956C-0.435304 16.5213 -0.324664 21.0204 1.31752 25.0724L18.6506 77.2778L35.5416 25.6593L36.6753 22.1268C37.67 17.5651 36.8585 12.801 34.4069 8.81024C31.9554 4.81943 28.0493 1.90393 23.4887 0.660832C18.9281 -0.582264 14.0581 -0.0588756 9.87615 2.1238C5.69416 4.30648 2.51667 7.98328 0.994439 12.4012L1.00577 12.3956ZM32.6396 23.049C31.6851 25.7955 29.9264 28.2012 27.5858 29.9623C25.2452 31.7233 22.4278 32.7606 19.4895 32.9431C16.5512 33.1256 13.624 32.445 11.0779 30.9874C8.53176 29.5298 6.48093 27.3607 5.18461 24.754C3.88828 22.1474 3.40465 19.2203 3.79483 16.3427C4.18501 13.4651 5.43149 10.7661 7.37673 8.58687C9.32198 6.40765 11.8787 4.84598 14.7237 4.09923C17.5687 3.35249 20.5744 3.45419 23.3608 4.39148C25.2141 5.01332 26.9247 5.98969 28.3947 7.26464C29.8646 8.53959 31.0649 10.088 31.9269 11.8213C32.7889 13.5545 33.2955 15.4385 33.4178 17.3651C33.5401 19.2918 33.2756 21.2233 32.6396 23.049Z" fill="black"/>
<path d="M18.5546 30.7686C25.5354 30.7686 31.1945 25.1881 31.1945 18.3041C31.1945 11.4202 25.5354 5.83966 18.5546 5.83966C11.5737 5.83966 5.91465 11.4202 5.91465 18.3041C5.91465 25.1881 11.5737 30.7686 18.5546 30.7686Z" fill="black"/>
</svg>
