<svg width="129" height="129" viewBox="0 0 129 129" fill="none" xmlns="http://www.w3.org/2000/svg">
<path d="M34.3032 21.3281C42.8696 14.4645 53.5232 10.7326 64.5 10.7501C75.9219 10.7501 86.4193 14.7061 94.6967 21.3281L102.507 13.5182L110.107 21.1184L102.297 28.9283C109.161 37.4947 112.893 48.1483 112.875 59.1251V64.5001H16.125V59.1251C16.125 47.7032 20.081 37.2058 26.703 28.9283L18.8931 21.1238L26.4934 13.5236L34.3032 21.3334V21.3281ZM16.125 75.2501H112.875V112.875C112.875 114.301 112.309 115.668 111.301 116.676C110.293 117.684 108.926 118.25 107.5 118.25H21.5C20.0745 118.25 18.7073 117.684 17.6993 116.676C16.6913 115.668 16.125 114.301 16.125 112.875V75.2501ZM48.375 48.3751C49.8005 48.3751 51.1677 47.8088 52.1757 46.8008C53.1837 45.7928 53.75 44.4256 53.75 43.0001C53.75 41.5745 53.1837 40.2074 52.1757 39.1994C51.1677 38.1914 49.8005 37.6251 48.375 37.6251C46.9495 37.6251 45.5823 38.1914 44.5743 39.1994C43.5663 40.2074 43 41.5745 43 43.0001C43 44.4256 43.5663 45.7928 44.5743 46.8008C45.5823 47.8088 46.9495 48.3751 48.375 48.3751ZM80.625 48.3751C82.0505 48.3751 83.4177 47.8088 84.4257 46.8008C85.4337 45.7928 86 44.4256 86 43.0001C86 41.5745 85.4337 40.2074 84.4257 39.1994C83.4177 38.1914 82.0505 37.6251 80.625 37.6251C79.1995 37.6251 77.8323 38.1914 76.8243 39.1994C75.8163 40.2074 75.25 41.5745 75.25 43.0001C75.25 44.4256 75.8163 45.7928 76.8243 46.8008C77.8323 47.8088 79.1995 48.3751 80.625 48.3751Z" fill="white"/>
</svg>
